<svg version="1.1" id="Layer_1" xmlns="http://www.w3.org/2000/svg" xmlns:xlink="http://www.w3.org/1999/xlink" x="0px" y="0px"
	 width="100%" viewBox="0 0 816 542" enable-background="new 0 0 816 542" xml:space="preserve">
<path fill="#FFFFFF" opacity="1.000000" stroke="none" 
	d="
M163.000000,543.000000 
	C109.010361,543.000000 55.020729,543.000000 1.015546,543.000000 
	C1.015546,362.378387 1.015546,181.756744 1.015546,1.067558 
	C272.902740,1.067558 544.805481,1.067558 816.854126,1.067558 
	C816.854126,181.666580 816.854126,362.333282 816.854126,543.000000 
	C763.239807,543.000000 709.583801,543.000000 655.467407,542.793152 
	C655.007019,542.586304 655.018188,542.172729 655.393860,542.096130 
	C667.960510,539.036987 673.278809,531.753174 673.279358,517.908630 
	C673.285889,357.747681 673.283569,197.586700 673.281921,37.425739 
	C673.281921,36.092575 673.286682,34.758511 673.242859,33.426388 
	C672.862671,21.871761 663.902527,13.013107 652.368713,13.011618 
	C490.041168,12.990650 327.713623,12.987307 165.386124,13.078462 
	C162.497208,13.080085 159.387390,13.816200 156.760254,15.030739 
	C147.289093,19.409298 144.096588,27.400675 144.101624,37.426697 
	C144.167007,167.588684 144.144852,297.750732 144.145004,427.912750 
	C144.145050,458.411652 144.098099,488.910706 144.169464,519.409424 
	C144.198547,531.842163 150.977097,539.894775 162.986481,542.384033 
	C162.991608,542.589355 163.000000,543.000000 163.000000,543.000000 
z"/>
<path fill="#FAF0EB" opacity="1.000000" stroke="none" 
	d="
M655.018188,542.172729 
	C655.018188,542.172729 655.007019,542.586304 655.003540,542.793152 
	C491.308411,543.000000 327.616852,543.000000 163.462631,543.000000 
	C163.000000,543.000000 162.991608,542.589355 163.451202,542.309570 
	C326.617889,542.020020 489.324982,542.010010 652.032043,542.007690 
	C653.027405,542.007629 654.022827,542.115356 655.018188,542.172729 
z"/>
<path fill="#C8602A" opacity="1.000000" stroke="none" 
	d="
M655.393860,542.096191 
	C654.022827,542.115356 653.027405,542.007629 652.032043,542.007690 
	C489.324982,542.010010 326.617889,542.020020 163.446075,542.104248 
	C150.977097,539.894775 144.198547,531.842163 144.169464,519.409424 
	C144.098099,488.910706 144.145050,458.411652 144.145004,427.912750 
	C144.144852,297.750732 144.167007,167.588684 144.101624,37.426697 
	C144.096588,27.400675 147.289093,19.409298 156.760254,15.030739 
	C159.387390,13.816200 162.497208,13.080085 165.386124,13.078462 
	C327.713623,12.987307 490.041168,12.990650 652.368713,13.011618 
	C663.902527,13.013107 672.862671,21.871761 673.242859,33.426388 
	C673.286682,34.758511 673.281921,36.092575 673.281921,37.425739 
	C673.283569,197.586700 673.285889,357.747681 673.279358,517.908630 
	C673.278809,531.753174 667.960510,539.036987 655.393860,542.096191 
M366.884857,182.553833 
	C362.402222,180.391251 358.053040,177.872528 353.411804,176.133118 
	C339.688446,170.989899 325.237793,169.290131 310.762360,169.102112 
	C280.114960,168.704041 249.458633,168.991547 218.805969,168.997467 
	C213.366486,168.998520 207.927002,168.997604 202.455231,168.997604 
	C202.455231,170.854446 202.455231,172.397903 202.455231,174.047455 
	C204.927689,174.380310 207.065063,174.695221 209.209412,174.951904 
	C217.555038,175.950867 221.147064,179.361008 222.028397,187.540756 
	C222.509048,192.001724 222.863693,196.501648 222.869278,200.984497 
	C222.928192,248.300339 222.927567,295.616333 222.867233,342.932159 
	C222.861740,347.247894 222.483948,351.580292 222.005829,355.874512 
	C221.180206,363.289917 218.611145,366.105621 211.341766,367.688416 
	C208.445618,368.319031 205.472153,368.594513 202.339127,369.060608 
	C202.339127,370.846191 202.339127,372.424133 202.339127,374.215057 
	C235.787140,374.215057 268.992920,374.215057 302.351929,374.215057 
	C302.351929,372.312256 302.351929,370.736938 302.351929,369.075409 
	C301.257965,368.893677 300.447693,368.750122 299.634552,368.625305 
	C284.716339,366.334778 282.274963,363.499573 281.995728,348.127563 
	C281.971466,346.794983 281.952637,345.462067 281.952301,344.129303 
	C281.947479,323.303650 281.942078,302.477966 281.952515,281.652313 
	C281.953247,280.198334 282.077454,278.744385 282.164490,276.849823 
	C286.245453,276.849823 290.047394,277.036407 293.824554,276.809784 
	C301.015991,276.378387 306.349304,279.506897 309.121552,285.810059 
	C311.974365,292.296356 314.532227,299.089752 315.914520,306.009369 
	C319.007629,321.493011 321.003082,337.194244 324.008087,352.697815 
	C325.874847,362.328888 331.316376,369.662415 340.738831,373.594513 
	C354.242859,379.229950 368.149261,379.714111 382.387543,377.359100 
	C393.350281,375.545898 402.993683,371.345917 410.983246,362.865967 
	C409.660187,361.656250 408.510864,360.605347 407.464508,359.648590 
	C397.126556,365.680969 391.505280,363.616028 387.659515,352.709198 
	C386.997925,350.832886 386.389313,348.919617 385.977386,346.976532 
	C383.632812,335.916138 381.310272,324.850586 379.065948,313.769470 
	C375.866455,297.972290 366.287384,287.454895 351.370636,282.455811 
	C341.204834,279.048920 330.469574,277.341278 321.161072,275.149750 
	C320.789154,275.198364 321.766113,275.077087 322.741150,274.942291 
	C340.255188,272.521179 356.984039,268.218109 370.758453,256.123260 
	C392.118561,237.367630 392.850311,197.967377 366.884857,182.553833 
M513.437500,369.223389 
	C512.981018,369.020416 512.499084,368.860474 512.071777,368.608154 
	C498.655365,360.685852 492.165894,347.803162 488.193787,333.639832 
	C480.771881,307.175262 480.187103,280.046295 482.278351,252.856842 
	C483.480927,237.221497 486.355957,221.834702 492.967865,207.417786 
	C498.552399,195.241058 505.691589,183.949707 518.211853,178.178772 
	C546.680298,165.056808 580.716248,180.511917 589.719543,210.509277 
	C592.661926,220.312607 594.102783,230.566574 596.295227,240.920853 
	C597.841553,240.920853 599.754639,240.920853 602.469971,240.920853 
	C602.469971,216.790497 602.469971,192.891479 602.469971,168.750397 
	C600.906799,168.750397 599.021973,168.750397 596.960815,168.750397 
	C596.426880,171.636398 596.065002,174.265152 595.443970,176.831161 
	C592.887512,187.394928 590.039856,188.287323 581.332581,181.737900 
	C572.076294,174.775543 561.971497,169.431473 550.548706,166.953003 
	C532.139282,162.958588 513.739502,163.807449 495.613617,168.276993 
	C459.128510,177.273666 433.162842,198.759430 420.393188,234.564407 
	C412.479401,256.753998 412.606873,279.691772 417.058350,302.598907 
	C421.355713,324.712921 430.735321,344.365875 449.619507,357.485657 
	C481.056091,379.326202 515.671082,384.395569 552.225037,373.068634 
	C564.556519,369.247498 576.215088,363.302917 588.367737,358.836517 
	C594.510376,356.578979 597.702148,358.676300 599.715942,364.858307 
	C600.279785,366.589233 600.908447,368.388306 600.972656,370.175323 
	C601.138489,374.790955 603.449219,375.378418 607.625427,373.870667 
	C607.625427,372.089233 607.620483,370.289154 607.626221,368.489105 
	C607.690247,348.327881 607.703613,328.166321 607.846985,308.005646 
	C607.903931,299.990784 608.420166,292.095123 619.599548,292.016357 
	C619.451904,289.761383 619.347778,288.170898 619.245789,286.612854 
	C585.751953,286.612854 552.666260,286.612854 519.354431,286.612854 
	C519.354431,288.342834 519.354431,290.044922 519.354431,291.707397 
	C523.463562,292.174042 527.284485,292.428986 531.039978,293.068542 
	C541.574036,294.862610 546.305420,298.629913 546.991211,309.126984 
	C548.085266,325.872772 548.010925,342.712677 547.901123,359.509308 
	C547.864868,365.055695 544.121338,368.925476 538.848145,370.991241 
	C530.383362,374.307343 522.185791,372.886780 513.437500,369.223389 
z"/>
<path fill="#FFFEFE" opacity="1.000000" stroke="none" 
	d="
M367.182617,182.763748 
	C392.850311,197.967377 392.118561,237.367630 370.758453,256.123260 
	C356.984039,268.218109 340.255188,272.521179 322.741150,274.942291 
	C321.766113,275.077087 320.789154,275.198364 321.161072,275.149750 
	C330.469574,277.341278 341.204834,279.048920 351.370636,282.455811 
	C366.287384,287.454895 375.866455,297.972290 379.065948,313.769470 
	C381.310272,324.850586 383.632812,335.916138 385.977386,346.976532 
	C386.389313,348.919617 386.997925,350.832886 387.659515,352.709198 
	C391.505280,363.616028 397.126556,365.680969 407.464508,359.648590 
	C408.510864,360.605347 409.660187,361.656250 410.983246,362.865967 
	C402.993683,371.345917 393.350281,375.545898 382.387543,377.359100 
	C368.149261,379.714111 354.242859,379.229950 340.738831,373.594513 
	C331.316376,369.662415 325.874847,362.328888 324.008087,352.697815 
	C321.003082,337.194244 319.007629,321.493011 315.914520,306.009369 
	C314.532227,299.089752 311.974365,292.296356 309.121552,285.810059 
	C306.349304,279.506897 301.015991,276.378387 293.824554,276.809784 
	C290.047394,277.036407 286.245453,276.849823 282.164490,276.849823 
	C282.077454,278.744385 281.953247,280.198334 281.952515,281.652313 
	C281.942078,302.477966 281.947479,323.303650 281.952301,344.129303 
	C281.952637,345.462067 281.971466,346.794983 281.995728,348.127563 
	C282.274963,363.499573 284.716339,366.334778 299.634552,368.625305 
	C300.447693,368.750122 301.257965,368.893677 302.351929,369.075409 
	C302.351929,370.736938 302.351929,372.312256 302.351929,374.215057 
	C268.992920,374.215057 235.787140,374.215057 202.339127,374.215057 
	C202.339127,372.424133 202.339127,370.846191 202.339127,369.060608 
	C205.472153,368.594513 208.445618,368.319031 211.341766,367.688416 
	C218.611145,366.105621 221.180206,363.289917 222.005829,355.874512 
	C222.483948,351.580292 222.861740,347.247894 222.867233,342.932159 
	C222.927567,295.616333 222.928192,248.300339 222.869278,200.984497 
	C222.863693,196.501648 222.509048,192.001724 222.028397,187.540756 
	C221.147064,179.361008 217.555038,175.950867 209.209412,174.951904 
	C207.065063,174.695221 204.927689,174.380310 202.455231,174.047455 
	C202.455231,172.397903 202.455231,170.854446 202.455231,168.997604 
	C207.927002,168.997604 213.366486,168.998520 218.805969,168.997467 
	C249.458633,168.991547 280.114960,168.704041 310.762360,169.102112 
	C325.237793,169.290131 339.688446,170.989899 353.411804,176.133118 
	C358.053040,177.872528 362.402222,180.391251 367.182617,182.763748 
M324.848663,208.918610 
	C323.318146,202.482285 322.344513,195.847351 320.135437,189.653030 
	C316.145599,178.465332 306.970612,173.173920 295.115540,174.293900 
	C287.234039,175.038483 284.302887,177.669647 282.951569,185.587280 
	C282.422516,188.687088 282.052856,191.856232 282.041016,194.995438 
	C281.949280,219.283325 281.959961,243.571609 281.955566,267.859772 
	C281.955414,268.801605 282.123535,269.743439 282.241516,270.981781 
	C285.340820,270.981781 288.139740,271.018616 290.937439,270.975769 
	C308.962677,270.699585 319.983826,262.332184 322.936218,244.537750 
	C324.821350,233.175674 324.351898,221.422913 324.848663,208.918610 
z"/>
<path fill="#FEFDFD" opacity="1.000000" stroke="none" 
	d="
M513.762085,369.425079 
	C522.185791,372.886780 530.383362,374.307343 538.848145,370.991241 
	C544.121338,368.925476 547.864868,365.055695 547.901123,359.509308 
	C548.010925,342.712677 548.085266,325.872772 546.991211,309.126984 
	C546.305420,298.629913 541.574036,294.862610 531.039978,293.068542 
	C527.284485,292.428986 523.463562,292.174042 519.354431,291.707397 
	C519.354431,290.044922 519.354431,288.342834 519.354431,286.612854 
	C552.666260,286.612854 585.751953,286.612854 619.245789,286.612854 
	C619.347778,288.170898 619.451904,289.761383 619.599548,292.016357 
	C608.420166,292.095123 607.903931,299.990784 607.846985,308.005646 
	C607.703613,328.166321 607.690247,348.327881 607.626221,368.489105 
	C607.620483,370.289154 607.625427,372.089233 607.625427,373.870667 
	C603.449219,375.378418 601.138489,374.790955 600.972656,370.175323 
	C600.908447,368.388306 600.279785,366.589233 599.715942,364.858307 
	C597.702148,358.676300 594.510376,356.578979 588.367737,358.836517 
	C576.215088,363.302917 564.556519,369.247498 552.225037,373.068634 
	C515.671082,384.395569 481.056091,379.326202 449.619507,357.485657 
	C430.735321,344.365875 421.355713,324.712921 417.058350,302.598907 
	C412.606873,279.691772 412.479401,256.753998 420.393188,234.564407 
	C433.162842,198.759430 459.128510,177.273666 495.613617,168.276993 
	C513.739502,163.807449 532.139282,162.958588 550.548706,166.953003 
	C561.971497,169.431473 572.076294,174.775543 581.332581,181.737900 
	C590.039856,188.287323 592.887512,187.394928 595.443970,176.831161 
	C596.065002,174.265152 596.426880,171.636398 596.960815,168.750397 
	C599.021973,168.750397 600.906799,168.750397 602.469971,168.750397 
	C602.469971,192.891479 602.469971,216.790497 602.469971,240.920853 
	C599.754639,240.920853 597.841553,240.920853 596.295227,240.920853 
	C594.102783,230.566574 592.661926,220.312607 589.719543,210.509277 
	C580.716248,180.511917 546.680298,165.056808 518.211853,178.178772 
	C505.691589,183.949707 498.552399,195.241058 492.967865,207.417786 
	C486.355957,221.834702 483.480927,237.221497 482.278351,252.856842 
	C480.187103,280.046295 480.771881,307.175262 488.193787,333.639832 
	C492.165894,347.803162 498.655365,360.685852 512.071777,368.608154 
	C512.499084,368.860474 512.981018,369.020416 513.762085,369.425079 
z"/>
<path fill="#C8612B" opacity="1.000000" stroke="none" 
	d="
M324.893402,209.381958 
	C324.351898,221.422913 324.821350,233.175674 322.936218,244.537750 
	C319.983826,262.332184 308.962677,270.699585 290.937439,270.975769 
	C288.139740,271.018616 285.340820,270.981781 282.241516,270.981781 
	C282.123535,269.743439 281.955414,268.801605 281.955566,267.859772 
	C281.959961,243.571609 281.949280,219.283325 282.041016,194.995438 
	C282.052856,191.856232 282.422516,188.687088 282.951569,185.587280 
	C284.302887,177.669647 287.234039,175.038483 295.115540,174.293900 
	C306.970612,173.173920 316.145599,178.465332 320.135437,189.653030 
	C322.344513,195.847351 323.318146,202.482285 324.893402,209.381958 
z"/>
</svg>